<?xml version="1.0" standalone="no"?>
<!DOCTYPE svg PUBLIC "-//W3C//DTD SVG 20010904//EN"
 "http://www.w3.org/TR/2001/REC-SVG-20010904/DTD/svg10.dtd">
<svg version="1.0" xmlns="http://www.w3.org/2000/svg"
 width="60.000000pt" height="50.000000pt" viewBox="0 0 60.000000 50.000000"
 preserveAspectRatio="xMidYMid meet">

<g transform="translate(0.000000,50.000000) scale(0.100000,-0.100000)"
fill="#000000" stroke="none">
<path d="M70 441 c-15 -28 -13 -284 2 -299 8 -8 48 -12 114 -12 l103 0 3 -47
3 -48 90 0 90 0 3 46 c3 43 6 47 33 53 l29 6 0 148 c0 102 -4 152 -12 160 -9
9 -74 12 -230 12 -205 0 -218 -1 -228 -19z m454 -16 c6 -18 23 -17 -238 -16
-109 0 -200 2 -203 5 -3 2 -2 9 2 15 4 7 79 11 220 11 180 0 214 -2 219 -15z
m1 -60 c0 -19 -8 -20 -222 -23 l-223 -2 0 25 0 25 223 -2 c214 -3 222 -4 222
-23z m5 -114 c0 -38 -3 -76 -6 -85 -8 -20 -44 -21 -44 -1 0 9 -7 18 -15 21 -9
4 -15 19 -15 36 0 33 -39 78 -68 78 -31 0 -62 -37 -62 -74 0 -21 -6 -36 -15
-40 -8 -3 -15 -12 -15 -21 0 -13 -15 -15 -102 -13 l-103 3 -3 83 -3 82 226 0
225 0 0 -69z m-116 13 c9 -8 16 -29 16 -45 0 -28 -2 -29 -45 -29 -44 0 -45 1
-45 33 0 53 40 76 74 41z m46 -154 l0 -60 -75 0 -75 0 0 60 0 60 75 0 75 0 0
-60z"/>
<path d="M105 290 c-4 -6 8 -10 29 -10 20 0 36 5 36 10 0 6 -13 10 -29 10 -17
0 -33 -4 -36 -10z"/>
<path d="M190 290 c0 -5 14 -10 30 -10 17 0 30 5 30 10 0 6 -13 10 -30 10 -16
0 -30 -4 -30 -10z"/>
</g>
</svg>
