<?xml version="1.0" standalone="no"?>
<!DOCTYPE svg PUBLIC "-//W3C//DTD SVG 20010904//EN"
 "http://www.w3.org/TR/2001/REC-SVG-20010904/DTD/svg10.dtd">
<svg version="1.0" xmlns="http://www.w3.org/2000/svg"
 width="153.000000pt" height="153.000000pt" viewBox="0 0 153.000000 153.000000"
 preserveAspectRatio="xMidYMid meet">

<g transform="translate(0.000000,153.000000) scale(0.100000,-0.100000)"
fill="#000000" stroke="none">
<path d="M643 1446 c-50 -22 -95 -44 -99 -49 -4 -4 -7 -56 -6 -117 2 -127 -2
-133 -90 -164 -65 -23 -84 -39 -91 -75 -5 -23 -17 -32 -79 -56 -97 -38 -118
-52 -118 -81 0 -19 14 -34 63 -65 34 -22 62 -45 62 -51 0 -6 -27 -27 -60 -47
-52 -32 -60 -41 -60 -66 0 -27 7 -33 68 -62 l67 -33 0 -124 c0 -120 1 -126 22
-138 22 -11 140 -61 390 -163 l107 -44 68 29 c37 15 147 60 243 100 96 39 181
78 189 86 11 10 14 38 12 122 -3 125 4 139 81 167 91 33 92 71 4 125 -33 20
-61 41 -63 47 -2 5 26 29 62 52 58 36 66 44 63 68 -3 24 -14 32 -96 68 -98 42
-115 56 -106 92 7 25 -26 63 -54 63 -10 0 -22 4 -28 9 -7 6 -137 52 -191 67
-9 2 -13 30 -13 92 0 60 -4 93 -12 99 -25 19 -203 93 -223 92 -11 -1 -61 -20
-112 -43z m193 -33 c21 -10 39 -23 41 -29 2 -6 -24 -22 -57 -37 l-61 -26 -53
23 c-81 36 -81 44 -1 78 45 20 76 17 131 -9z m-168 -103 c62 -30 79 -53 70
-97 -3 -14 -11 -17 -43 -15 -21 2 -49 -2 -61 -9 -42 -22 -54 -6 -54 69 0 65 4
82 20 82 4 0 34 -13 68 -30z m270 -51 c3 -65 1 -76 -18 -91 -33 -27 -86 -33
-115 -14 -21 14 -25 24 -25 65 0 33 5 53 16 62 22 18 116 58 129 55 6 -2 11
-36 13 -77z m-161 -146 c90 -35 113 -57 76 -69 -10 -4 -50 -19 -90 -35 -39
-16 -80 -29 -90 -29 -20 0 -171 58 -191 73 -9 7 -10 13 -3 20 13 13 171 76
191 77 8 0 56 -17 107 -37z m318 14 c33 -13 60 -29 60 -36 0 -7 -22 -22 -50
-32 -27 -11 -60 -24 -72 -30 -25 -14 -43 -5 -43 21 0 11 -11 27 -25 36 -32 21
-32 38 3 51 42 17 63 15 127 -10z m130 -222 l0 -140 -100 -42 c-55 -23 -108
-42 -118 -42 -16 -1 -17 10 -15 141 l3 141 100 43 c55 23 107 42 115 41 13 -2
15 -25 15 -142z m-684 72 l104 -44 3 -126 c2 -119 1 -127 -16 -127 -34 0 -207
78 -217 97 -15 29 -7 243 9 243 7 0 60 -20 117 -43z m394 -147 l0 -184 -57
-25 -58 -24 -57 24 -58 25 0 144 0 143 100 43 c55 23 107 42 115 41 13 -2 15
-30 15 -187z m-577 74 c4 -74 -13 -85 -75 -47 -64 39 -65 54 -6 80 69 30 77
27 81 -33z m997 32 c30 -14 55 -29 55 -35 0 -15 -98 -71 -114 -65 -8 3 -16 15
-18 27 -5 35 3 97 13 97 5 0 33 -11 64 -24z m-827 -269 c97 -41 192 -80 210
-87 17 -7 32 -18 32 -26 0 -15 -78 -64 -102 -64 -14 0 -426 165 -436 174 -17
18 58 74 101 76 9 0 97 -33 195 -73z m838 47 c59 -35 56 -43 -26 -78 -229 -96
-355 -146 -370 -146 -21 0 -110 48 -110 60 0 5 5 12 12 16 28 18 415 173 431
173 10 1 39 -11 63 -25z m-827 -228 l135 -56 52 30 c43 24 54 27 63 16 13 -15
13 -266 1 -286 -8 -13 -23 -8 -280 98 -74 30 -141 60 -147 65 -9 6 -13 40 -13
104 l0 95 28 -5 c15 -2 87 -30 161 -61z m749 -16 c5 -114 6 -112 -110 -160
-57 -24 -151 -63 -210 -87 -59 -25 -112 -42 -118 -38 -14 9 -14 292 1 300 5 4
27 -4 47 -17 20 -14 44 -27 52 -30 9 -3 79 20 155 53 77 32 149 57 160 56 18
-2 20 -10 23 -77z"/>
</g>
</svg>
