<?xml version="1.0" standalone="no"?>
<!DOCTYPE svg PUBLIC "-//W3C//DTD SVG 20010904//EN"
 "http://www.w3.org/TR/2001/REC-SVG-20010904/DTD/svg10.dtd">
<svg version="1.0" xmlns="http://www.w3.org/2000/svg"
 width="132.000000pt" height="171.000000pt" viewBox="0 0 132.000000 171.000000"
 preserveAspectRatio="xMidYMid meet">

<g transform="translate(0.000000,171.000000) scale(0.100000,-0.100000)"
fill="#000000" stroke="none">
<path d="M579 1564 c-20 -22 -30 -25 -64 -21 -22 3 -50 9 -61 12 -17 5 -27 -2
-51 -37 -26 -39 -33 -43 -73 -46 -54 -4 -62 -11 -75 -65 -10 -37 -17 -45 -59
-65 l-48 -23 6 -53 c7 -52 6 -54 -28 -84 -42 -36 -43 -48 -15 -103 l20 -40
-26 -45 -26 -44 41 -40 c41 -40 42 -42 35 -90 l-7 -49 50 -25 c43 -22 51 -30
57 -63 9 -47 21 -63 50 -63 56 0 55 3 55 -205 0 -166 2 -194 16 -199 9 -3 62
19 127 54 l112 59 113 -59 c62 -33 119 -57 127 -54 13 5 15 37 15 193 0 204 2
211 56 211 38 0 48 11 63 66 10 36 17 43 55 58 51 20 59 32 45 78 -13 46 -13
45 32 87 l41 38 -21 41 c-24 48 -26 70 -8 97 29 43 27 54 -14 95 -37 36 -39
43 -33 77 3 21 7 42 8 48 0 5 -20 21 -47 35 -39 21 -49 32 -58 65 -15 56 -25
65 -75 65 -40 0 -45 3 -74 45 -17 25 -35 45 -39 45 -5 0 -27 -6 -49 -14 -36
-13 -42 -13 -70 4 -16 10 -33 23 -36 29 -12 19 -42 12 -67 -15z m71 -50 c25
-30 48 -35 91 -23 40 13 40 13 77 -29 30 -34 44 -42 77 -44 36 -3 40 -6 50
-38 14 -49 22 -58 62 -75 35 -15 36 -16 29 -61 -5 -42 -3 -47 29 -80 19 -19
35 -37 35 -40 0 -4 -9 -23 -21 -44 l-21 -37 21 -41 21 -41 -32 -37 c-27 -30
-33 -46 -33 -82 0 -43 -2 -47 -40 -66 -30 -16 -41 -29 -46 -56 -9 -41 -32 -60
-74 -60 -32 0 -56 -19 -69 -53 -5 -17 -13 -18 -64 -12 -49 5 -61 3 -84 -14
-33 -26 -43 -26 -76 0 -22 17 -35 20 -78 14 -49 -6 -52 -5 -78 29 -21 28 -34
36 -59 36 -44 0 -60 13 -72 57 -8 29 -20 43 -50 59 -39 21 -40 22 -37 72 2 47
0 53 -28 73 -34 26 -37 48 -13 90 16 27 16 31 0 64 -23 48 -22 57 14 91 28 27
30 32 24 76 l-7 48 44 19 c40 17 46 24 54 62 9 43 10 44 58 50 28 3 52 11 57
20 4 9 17 26 27 39 18 23 22 23 61 12 43 -13 66 -8 91 22 7 9 20 16 30 16 10
0 23 -7 30 -16z m-69 -994 l42 -30 37 30 c21 17 47 30 58 30 25 0 95 -29 104
-44 4 -6 8 -55 8 -109 0 -80 -3 -99 -16 -104 -9 -3 -54 14 -108 42 l-93 49
-83 -47 c-122 -69 -120 -71 -120 73 l0 120 28 1 c15 0 36 4 47 9 35 15 54 11
96 -20z"/>
<path d="M620 1371 c0 -11 3 -21 8 -22 78 -7 155 -38 209 -83 39 -33 90 -131
99 -192 7 -46 29 -68 44 -44 24 38 -27 174 -90 243 -62 68 -130 105 -209 113
-58 7 -61 6 -61 -15z"/>
<path d="M589 1223 c-5 -16 -17 -45 -27 -64 -15 -31 -22 -34 -69 -39 -81 -8
-86 -21 -29 -79 l47 -48 -12 -62 c-17 -83 -7 -92 58 -52 28 17 55 31 61 31 6
0 33 -14 59 -30 40 -26 49 -28 61 -16 11 11 11 21 -2 66 -18 61 -11 81 44 122
33 24 39 52 14 62 -9 3 -35 6 -59 6 -48 0 -51 2 -81 75 -24 59 -50 70 -65 28z
m51 -117 c7 -15 24 -26 38 -28 33 -4 37 -19 13 -47 -14 -16 -18 -31 -14 -52 4
-24 2 -29 -14 -29 -10 0 -24 5 -30 11 -8 8 -17 8 -31 0 -39 -21 -54 -14 -47
20 5 24 2 36 -15 54 -26 27 -19 45 16 45 16 0 28 8 36 25 14 32 31 32 48 1z"/>
<path d="M275 1041 c-10 -18 13 -117 40 -171 33 -64 92 -122 160 -155 60 -30
158 -44 169 -26 13 21 -15 41 -56 41 -40 0 -101 26 -154 66 -47 35 -93 114
-108 186 -8 42 -18 64 -28 66 -9 2 -19 -2 -23 -7z"/>
</g>
</svg>
