<?xml version="1.0" standalone="no"?>
<!DOCTYPE svg PUBLIC "-//W3C//DTD SVG 20010904//EN"
 "http://www.w3.org/TR/2001/REC-SVG-20010904/DTD/svg10.dtd">
<svg version="1.0" xmlns="http://www.w3.org/2000/svg"
 width="168.000000pt" height="162.000000pt" viewBox="0 0 168.000000 162.000000"
 preserveAspectRatio="xMidYMid meet">

<g transform="translate(0.000000,162.000000) scale(0.100000,-0.100000)"
fill="#000000" stroke="none">
<path d="M650 1421 c-31 -14 -80 -37 -110 -50 -115 -51 -160 -73 -170 -86 -20
-24 -1 -53 61 -90 32 -20 59 -43 59 -50 0 -7 -25 -28 -55 -45 -96 -55 -95 -86
4 -134 l66 -32 3 -72 c3 -69 4 -72 27 -72 23 0 25 4 25 50 0 64 12 69 79 36
63 -32 79 -32 125 -1 62 42 65 39 68 -87 3 -105 4 -113 23 -113 19 0 20 8 23
113 3 126 6 129 68 87 20 -14 46 -25 56 -25 11 0 42 11 70 25 71 36 76 34 80
-27 3 -46 6 -53 25 -56 21 -3 22 1 25 70 l3 73 50 23 c69 31 77 36 89 55 16
25 -1 46 -67 86 -31 19 -57 39 -57 46 0 7 27 29 59 49 67 41 83 69 55 96 -11
10 -62 37 -114 60 -144 64 -183 82 -201 91 -11 5 -37 -4 -84 -31 -37 -22 -74
-40 -81 -40 -8 0 -31 11 -52 23 -89 56 -91 57 -152 28z m114 -57 c28 -16 46
-32 44 -41 -3 -14 -250 -134 -272 -132 -18 1 -99 54 -104 67 -2 7 24 24 65 42
37 17 95 44 128 60 75 36 82 36 139 4z m338 -13 c45 -21 104 -48 131 -59 65
-29 63 -36 -20 -82 -41 -23 -42 -23 -80 -5 -21 10 -81 38 -133 61 -65 28 -95
47 -95 58 0 18 68 63 97 65 9 1 54 -16 100 -38z m-152 -114 c30 -14 80 -36
111 -50 62 -27 75 -40 56 -54 -24 -20 -242 -113 -262 -113 -12 0 -72 24 -135
53 -136 62 -142 66 -135 77 6 10 15 15 169 84 107 48 98 48 196 3z m-274 -196
c71 -33 130 -66 132 -74 2 -9 -17 -25 -51 -42 l-54 -28 -109 50 c-60 28 -119
53 -131 57 -40 13 -35 35 15 66 26 16 52 30 58 30 7 0 70 -27 140 -59z m557
29 c26 -16 47 -34 47 -40 0 -6 -17 -18 -37 -27 -21 -8 -80 -35 -132 -59 -51
-24 -99 -44 -105 -44 -21 0 -108 60 -104 71 4 13 244 127 269 128 8 1 36 -12
62 -29z"/>
<path d="M280 911 c-44 -22 -56 -33 -58 -54 -3 -24 5 -32 63 -68 36 -23 64
-47 62 -52 -2 -6 -30 -27 -63 -47 -91 -56 -85 -96 19 -135 26 -10 51 -23 54
-29 4 -6 6 -61 4 -123 -3 -130 -4 -128 103 -174 36 -15 94 -41 128 -57 35 -15
109 -48 165 -72 99 -42 103 -42 135 -27 18 8 119 52 223 97 105 45 200 88 212
96 21 13 23 22 25 140 l3 126 51 21 c66 28 84 44 84 73 0 18 -12 31 -46 52
-65 38 -85 55 -76 67 4 6 33 27 65 48 50 33 58 42 55 65 -2 22 -14 32 -58 54
-46 22 -57 24 -69 13 -18 -17 -2 -40 34 -49 40 -10 30 -38 -23 -67 -32 -18
-57 -25 -75 -22 -25 5 -27 3 -27 -26 0 -30 -5 -34 -82 -70 -46 -21 -112 -51
-148 -66 -36 -15 -89 -38 -118 -51 -29 -13 -58 -24 -65 -24 -7 0 -103 39 -212
88 -159 69 -200 91 -201 107 -1 11 -2 26 -3 34 -1 9 -9 12 -29 8 -20 -4 -41 2
-75 24 -52 32 -60 55 -22 65 36 9 52 31 34 49 -12 11 -22 9 -69 -14z m316
-303 c190 -81 214 -94 214 -108 0 -5 -23 -23 -52 -40 -51 -32 -52 -32 -87 -15
-20 10 -85 39 -146 65 -60 26 -130 56 -155 67 -25 11 -53 23 -62 26 -10 4 -18
13 -18 21 0 15 76 65 101 66 9 0 101 -37 205 -82z m780 56 c27 -16 44 -33 42
-42 -2 -9 -48 -34 -108 -59 -58 -25 -149 -65 -204 -89 l-98 -44 -54 31 c-30
17 -54 35 -54 40 0 11 31 26 255 125 77 34 148 62 158 63 10 1 39 -11 63 -25z
m-809 -224 c74 -33 139 -60 144 -60 5 0 27 11 49 25 70 44 70 44 70 -125 0
-123 -3 -150 -14 -150 -8 0 -47 15 -88 34 -40 18 -118 53 -173 76 -153 64
-145 55 -145 159 0 78 4 101 17 101 3 0 65 -27 140 -60z m733 -40 c0 -58 -4
-91 -12 -98 -26 -21 -382 -172 -395 -168 -10 4 -13 40 -13 151 0 165 -1 164
76 119 l45 -26 112 48 c62 27 123 54 136 60 43 23 51 10 51 -86z"/>
</g>
</svg>
