<?xml version="1.0" standalone="no"?>
<!DOCTYPE svg PUBLIC "-//W3C//DTD SVG 20010904//EN"
 "http://www.w3.org/TR/2001/REC-SVG-20010904/DTD/svg10.dtd">
<svg version="1.0" xmlns="http://www.w3.org/2000/svg"
 width="156.000000pt" height="126.000000pt" viewBox="0 0 156.000000 126.000000"
 preserveAspectRatio="xMidYMid meet">

<g transform="translate(0.000000,126.000000) scale(0.100000,-0.100000)"
fill="#000000" stroke="none">
<path d="M280 1050 c-6 -11 -33 -81 -60 -156 -37 -100 -47 -140 -40 -149 15
-18 254 -19 268 -2 9 11 35 76 87 220 10 26 24 47 31 47 19 0 21 -779 2 -798
-16 -16 -220 -16 -236 0 -9 9 -12 77 -12 245 0 227 -1 233 -20 233 -20 0 -20
-5 -18 -262 l3 -263 530 0 530 0 3 263 c2 257 2 262 -18 262 -19 0 -20 -6 -20
-233 0 -168 -3 -236 -12 -245 -19 -19 -651 -17 -667 2 -15 18 -11 792 4 789
14 -2 19 -13 61 -133 20 -58 44 -113 52 -123 14 -16 41 -17 353 -16 278 0 340
3 350 15 9 11 0 43 -41 151 -29 76 -56 146 -61 156 -9 16 -45 17 -534 17 -512
0 -525 0 -535 -20z m156 -30 c78 0 78 1 25 -135 l-39 -100 -87 -3 c-49 -2 -92
1 -96 5 -12 12 64 213 87 230 10 7 25 11 32 8 8 -3 43 -5 78 -5z m881 -13 c17
-22 83 -209 77 -218 -3 -5 -141 -9 -310 -9 l-304 0 -15 33 c-7 17 -27 68 -43
112 -24 63 -27 82 -18 90 20 15 601 8 613 -8z"/>
<path d="M934 477 c-3 -8 -3 -56 -2 -108 3 -80 6 -94 21 -97 15 -3 17 7 17
107 0 93 -2 111 -15 111 -9 0 -18 -6 -21 -13z"/>
<path d="M1017 483 c-4 -3 -7 -51 -7 -105 0 -80 3 -100 15 -105 9 -3 18 -3 21
0 4 4 8 155 5 205 -1 13 -23 17 -34 5z"/>
<path d="M1122 383 c2 -88 6 -108 18 -108 12 0 15 18 15 105 0 93 -2 105 -18
108 -16 3 -17 -5 -15 -105z"/>
<path d="M1204 477 c-3 -8 -3 -56 -2 -108 2 -77 6 -94 19 -97 23 -4 25 8 21
121 -3 77 -6 97 -18 97 -8 0 -17 -6 -20 -13z"/>
</g>
</svg>
