<?xml version="1.0" standalone="no"?>
<!DOCTYPE svg PUBLIC "-//W3C//DTD SVG 20010904//EN"
 "http://www.w3.org/TR/2001/REC-SVG-20010904/DTD/svg10.dtd">
<svg version="1.0" xmlns="http://www.w3.org/2000/svg"
 width="147.000000pt" height="153.000000pt" viewBox="0 0 147.000000 153.000000"
 preserveAspectRatio="xMidYMid meet">

<g transform="translate(0.000000,153.000000) scale(0.100000,-0.100000)"
fill="#000000" stroke="none">
<path d="M650 1401 c-19 -11 -45 -30 -57 -44 -17 -20 -31 -25 -67 -25 -64 0
-124 -37 -156 -96 -13 -25 -28 -46 -32 -46 -4 0 -21 -19 -38 -42 -24 -33 -30
-51 -30 -92 0 -61 28 -120 59 -124 27 -4 27 10 0 66 -19 38 -20 49 -10 83 7
23 24 48 42 61 17 13 40 42 51 65 22 46 71 83 109 83 14 0 42 -9 63 -21 21
-11 45 -18 52 -15 16 6 19 36 4 36 -22 0 -8 40 21 61 38 27 95 28 132 4 27
-17 36 -48 17 -60 -15 -9 -12 -32 6 -39 9 -4 28 4 45 19 91 76 212 42 250 -72
17 -52 -1 -103 -53 -147 -64 -56 -139 -50 -214 16 -26 23 -45 16 -68 -22 -21
-36 -64 -60 -107 -60 -37 0 -96 33 -104 60 -7 22 -27 31 -46 19 -12 -7 -11
-14 5 -44 15 -27 17 -38 8 -47 -30 -30 5 -63 36 -35 14 13 24 14 57 5 57 -15
107 -3 155 37 23 19 43 35 43 35 1 0 24 -11 51 -25 57 -29 110 -32 164 -9 151
63 167 268 26 350 -41 24 -52 26 -119 21 -58 -4 -77 -2 -86 10 -42 50 -146 67
-209 34z"/>
<path d="M299 848 c-10 -23 -19 -66 -106 -484 -41 -197 -46 -234 -34 -248 12
-14 44 -16 260 -16 179 0 250 3 259 12 19 19 15 56 -29 256 -22 103 -54 252
-70 331 -16 79 -34 150 -40 157 -8 10 -41 14 -120 14 -104 0 -110 -1 -120 -22z
m194 -30 c16 -13 23 -40 118 -497 17 -79 28 -150 25 -157 -4 -11 -47 -14 -215
-14 -126 0 -212 4 -216 10 -3 5 12 94 34 197 22 104 52 247 67 318 16 77 33
135 42 143 9 6 41 12 72 12 31 0 64 -6 73 -12z"/>
<path d="M650 593 c0 -17 77 -140 113 -180 23 -25 75 -31 95 -11 7 7 12 40 12
79 0 101 12 101 80 -1 52 -79 65 -90 106 -90 46 0 58 20 51 90 -3 42 -1 62 8
70 10 8 25 -6 67 -67 29 -43 66 -84 81 -91 l28 -13 -3 -112 -3 -112 -273 -3
-273 -2 3 -23 3 -22 284 -3 c204 -2 287 1 298 9 11 9 13 43 11 162 l-3 150
-35 12 c-26 9 -46 28 -77 75 -65 96 -71 101 -117 98 l-41 -3 -3 -77 c-4 -105
-21 -105 -90 2 l-51 80 -45 0 c-53 0 -58 -10 -55 -95 4 -90 -12 -89 -77 9 -37
56 -63 86 -76 86 -10 0 -18 -7 -18 -17z"/>
<path d="M867 263 c-10 -3 -17 -12 -15 -21 4 -24 66 -29 75 -7 10 27 -17 39
-60 28z"/>
<path d="M1013 263 c-7 -2 -13 -13 -13 -24 0 -15 7 -19 34 -19 41 0 56 18 31
37 -19 13 -31 15 -52 6z"/>
<path d="M1154 256 c-9 -7 -14 -18 -10 -24 11 -17 73 -15 79 3 11 26 -40 41
-69 21z"/>
</g>
</svg>
