<?xml version="1.0" standalone="no"?>
<!DOCTYPE svg PUBLIC "-//W3C//DTD SVG 20010904//EN"
 "http://www.w3.org/TR/2001/REC-SVG-20010904/DTD/svg10.dtd">
<svg version="1.0" xmlns="http://www.w3.org/2000/svg"
 width="168.000000pt" height="171.000000pt" viewBox="0 0 168.000000 171.000000"
 preserveAspectRatio="xMidYMid meet">

<g transform="translate(0.000000,171.000000) scale(0.100000,-0.100000)"
fill="#000000" stroke="none">
<path d="M610 1432 c-31 -15 -118 -56 -195 -92 -76 -36 -162 -76 -189 -90
l-51 -25 0 -310 0 -310 60 -30 c34 -16 103 -50 155 -74 52 -24 137 -64 190
-89 52 -25 100 -45 105 -45 27 -1 125 53 125 68 0 20 -28 31 -43 16 -6 -6 -21
-11 -34 -11 l-23 0 0 253 c0 233 1 255 18 270 10 10 21 17 24 17 4 0 73 32
155 71 253 121 253 121 253 74 0 -29 16 -41 35 -25 22 18 20 103 -2 122 -10 9
-85 47 -168 86 -82 38 -188 88 -234 111 -46 23 -94 41 -105 40 -12 0 -46 -13
-76 -27z m217 -83 c70 -34 161 -76 201 -95 39 -18 72 -39 72 -47 0 -8 -33 -29
-72 -47 -40 -19 -133 -62 -206 -97 -73 -35 -135 -63 -137 -63 -2 0 -75 34
-162 76 -87 41 -179 85 -206 96 -51 22 -60 43 -24 57 32 13 339 159 357 170
27 17 47 12 177 -50z m-393 -283 c109 -52 204 -100 212 -107 21 -17 21 -519 0
-519 -23 0 -418 187 -428 203 -9 14 -11 478 -2 501 3 9 9 16 13 16 4 0 96 -42
205 -94z"/>
<path d="M1102 1015 c-112 -24 -209 -104 -259 -210 -25 -53 -28 -72 -28 -155
0 -87 3 -101 32 -161 39 -79 102 -140 181 -177 50 -24 70 -27 157 -27 88 0
107 3 157 27 147 69 237 241 208 400 -40 216 -236 349 -448 303z m174 -52 c69
-23 116 -55 156 -105 55 -70 73 -121 73 -213 -1 -72 -4 -87 -35 -143 -73 -136
-218 -204 -358 -168 -106 27 -181 90 -228 190 -34 73 -33 180 2 256 72 156
239 234 390 183z"/>
<path d="M1107 866 c-94 -35 -148 -112 -148 -210 0 -61 18 -111 41 -111 16 0
17 19 5 91 -9 54 20 121 70 159 46 36 123 45 179 21 50 -21 66 -20 66 3 0 43
-140 74 -213 47z"/>
<path d="M1283 732 c-94 -46 -112 -62 -89 -81 9 -7 39 3 107 35 109 53 120 61
112 80 -8 22 -30 16 -130 -34z"/>
<path d="M1366 658 c-20 -74 -22 -99 -12 -107 24 -20 56 31 56 90 0 22 -5 29
-20 29 -11 0 -22 -6 -24 -12z"/>
</g>
</svg>
