<?xml version="1.0" standalone="no"?>
<!DOCTYPE svg PUBLIC "-//W3C//DTD SVG 20010904//EN"
 "http://www.w3.org/TR/2001/REC-SVG-20010904/DTD/svg10.dtd">
<svg version="1.0" xmlns="http://www.w3.org/2000/svg"
 width="55.000000pt" height="55.000000pt" viewBox="0 0 55.000000 55.000000"
 preserveAspectRatio="xMidYMid meet">

<g transform="translate(0.000000,55.000000) scale(0.100000,-0.100000)"
fill="#000000" stroke="none">
<path d="M339 505 c-36 -19 -63 -78 -55 -120 6 -29 34 -77 99 -166 11 -15 20
-20 25 -13 4 5 28 40 55 76 53 75 64 111 47 162 -22 67 -105 97 -171 61z m95
-9 c80 -33 86 -94 19 -195 -53 -80 -52 -81 -113 11 -57 86 -50 145 20 180 42
21 33 21 74 4z"/>
<path d="M366 444 c-24 -24 -20 -61 9 -80 23 -15 27 -15 50 0 42 28 24 96 -25
96 -10 0 -26 -7 -34 -16z m62 -35 c3 -28 -16 -43 -43 -33 -15 6 -21 45 -8 58
16 16 48 1 51 -25z"/>
<path d="M50 262 l0 -147 73 -26 72 -25 79 19 79 20 65 -21 c36 -12 69 -19 74
-16 11 7 8 203 -3 210 -5 3 -9 -38 -9 -92 l0 -96 -27 5 c-71 14 -83 24 -83 67
0 22 -4 40 -10 40 -5 0 -10 -17 -10 -39 0 -38 0 -38 -58 -55 -98 -27 -92 -34
-92 110 l0 126 30 11 c17 6 30 15 30 19 0 10 -18 9 -45 -1 -11 -5 -29 -5 -41
-1 -11 5 -44 15 -72 24 l-52 15 0 -147z m104 94 l36 -15 0 -125 c0 -70 -4
-126 -9 -126 -5 0 -34 10 -65 21 l-56 22 0 125 0 125 29 -6 c17 -4 46 -13 65
-21z"/>
</g>
</svg>
