<?xml version="1.0" standalone="no"?><svg version="1.0" xmlns="http://www.w3.org/2000/svg" width="80" height="66.667" viewBox="0 0 60 50"><path d="M7 5.9c-1.5 2.8-1.3 28.4.2 29.9.8.8 4.8 1.2 11.4 1.2h10.3l.3 4.7.3 4.8h18l.3-4.6c.3-4.3.6-4.7 3.3-5.3L54 36V21.2c0-10.2-.4-15.2-1.2-16-.9-.9-7.4-1.2-23-1.2C9.3 4 8 4.1 7 5.9zm45.4 1.6c.6 1.8 2.3 1.7-23.8 1.6-10.9 0-20-.2-20.3-.5-.3-.2-.2-.9.2-1.5.4-.7 7.9-1.1 22-1.1 18 0 21.4.2 21.9 1.5zm.1 6c0 1.9-.8 2-22.2 2.3L8 16v-5l22.3.2c21.4.3 22.2.4 22.2 2.3zm.5 11.4c0 3.8-.3 7.6-.6 8.5-.8 2-4.4 2.1-4.4.1 0-.9-.7-1.8-1.5-2.1-.9-.4-1.5-1.9-1.5-3.6 0-3.3-3.9-7.8-6.8-7.8-3.1 0-6.2 3.7-6.2 7.4 0 2.1-.6 3.6-1.5 4-.8.3-1.5 1.2-1.5 2.1 0 1.3-1.5 1.5-10.2 1.3l-10.3-.3-.3-8.3-.3-8.2H53v6.9zm-11.6-1.3c.9.8 1.6 2.9 1.6 4.5 0 2.8-.2 2.9-4.5 2.9-4.4 0-4.5-.1-4.5-3.3 0-5.3 4-7.6 7.4-4.1zM46 39v6H31V33h15v6z"/><path d="M10.5 21c-.4.6.8 1 2.9 1 2 0 3.6-.5 3.6-1 0-.6-1.3-1-2.9-1-1.7 0-3.3.4-3.6 1zM19 21c0 .5 1.4 1 3 1 1.7 0 3-.5 3-1 0-.6-1.3-1-3-1-1.6 0-3 .4-3 1z"/></svg>