<?xml version="1.0" standalone="no"?><svg version="1.0" xmlns="http://www.w3.org/2000/svg" width="224" height="228" viewBox="0 0 168 171"><path d="M61 27.8c-3.1 1.5-11.8 5.6-19.5 9.2-7.6 3.6-16.2 7.6-18.9 9l-5.1 2.5v62l6 3c3.4 1.6 10.3 5 15.5 7.4 5.2 2.4 13.7 6.4 19 8.9 5.2 2.5 10 4.5 10.5 4.5 2.7.1 12.5-5.3 12.5-6.8 0-2-2.8-3.1-4.3-1.6-.6.6-2.1 1.1-3.4 1.1H71v-25.3c0-23.3.1-25.5 1.8-27 1-1 2.1-1.7 2.4-1.7.4 0 7.3-3.2 15.5-7.1C116 53.8 116 53.8 116 58.5c0 2.9 1.6 4.1 3.5 2.5 2.2-1.8 2-10.3-.2-12.2-1-.9-8.5-4.7-16.8-8.6-8.2-3.8-18.8-8.8-23.4-11.1-4.6-2.3-9.4-4.1-10.5-4-1.2 0-4.6 1.3-7.6 2.7zm21.7 8.3c7 3.4 16.1 7.6 20.1 9.5 3.9 1.8 7.2 3.9 7.2 4.7 0 .8-3.3 2.9-7.2 4.7-4 1.9-13.3 6.2-20.6 9.7-7.3 3.5-13.5 6.3-13.7 6.3-.2 0-7.5-3.4-16.2-7.6-8.7-4.1-17.9-8.5-20.6-9.6-5.1-2.2-6-4.3-2.4-5.7 3.2-1.3 33.9-15.9 35.7-17 2.7-1.7 4.7-1.2 17.7 5zM43.4 64.4c10.9 5.2 20.4 10 21.2 10.7 2.1 1.7 2.1 51.9 0 51.9-2.3 0-41.8-18.7-42.8-20.3-.9-1.4-1.1-47.8-.2-50.1.3-.9.9-1.6 1.3-1.6s9.6 4.2 20.5 9.4z"/><path d="M110.2 69.5c-11.2 2.4-20.9 10.4-25.9 21-2.5 5.3-2.8 7.2-2.8 15.5 0 8.7.3 10.1 3.2 16.1 3.9 7.9 10.2 14 18.1 17.7 5 2.4 7 2.7 15.7 2.7 8.8 0 10.7-.3 15.7-2.7 14.7-6.9 23.7-24.1 20.8-40-4-21.6-23.6-34.9-44.8-30.3zm17.4 5.2c6.9 2.3 11.6 5.5 15.6 10.5 5.5 7 7.3 12.1 7.3 21.3-.1 7.2-.4 8.7-3.5 14.3-7.3 13.6-21.8 20.4-35.8 16.8-10.6-2.7-18.1-9-22.8-19-3.4-7.3-3.3-18 .2-25.6 7.2-15.6 23.9-23.4 39-18.3z"/><path d="M110.7 84.4c-9.4 3.5-14.8 11.2-14.8 21 0 6.1 1.8 11.1 4.1 11.1 1.6 0 1.7-1.9.5-9.1-.9-5.4 2-12.1 7-15.9 4.6-3.6 12.3-4.5 17.9-2.1 5 2.1 6.6 2 6.6-.3 0-4.3-14-7.4-21.3-4.7zM128.3 97.8c-9.4 4.6-11.2 6.2-8.9 8.1.9.7 3.9-.3 10.7-3.5 10.9-5.3 12-6.1 11.2-8-.8-2.2-3-1.6-13 3.4zM136.6 105.2c-2 7.4-2.2 9.9-1.2 10.7 2.4 2 5.6-3.1 5.6-9 0-2.2-.5-2.9-2-2.9-1.1 0-2.2.6-2.4 1.2z"/></svg>