<?xml version="1.0" standalone="no"?><svg version="1.0" xmlns="http://www.w3.org/2000/svg" width="208" height="168" viewBox="0 0 156 126"><path d="M28 21c-.6 1.1-3.3 8.1-6 15.6-3.7 10-4.7 14-4 14.9 1.5 1.8 25.4 1.9 26.8.2.9-1.1 3.5-7.6 8.7-22 1-2.6 2.4-4.7 3.1-4.7 1.9 0 2.1 77.9.2 79.8-1.6 1.6-22 1.6-23.6 0-.9-.9-1.2-7.7-1.2-24.5 0-22.7-.1-23.3-2-23.3-2 0-2 .5-1.8 26.2l.3 26.3h106l.3-26.3C135 57.5 135 57 133 57c-1.9 0-2 .6-2 23.3 0 16.8-.3 23.6-1.2 24.5-1.9 1.9-65.1 1.7-66.7-.2-1.5-1.8-1.1-79.2.4-78.9 1.4.2 1.9 1.3 6.1 13.3 2 5.8 4.4 11.3 5.2 12.3 1.4 1.6 4.1 1.7 35.3 1.6 27.8 0 34-.3 35-1.5.9-1.1 0-4.3-4.1-15.1-2.9-7.6-5.6-14.6-6.1-15.6-.9-1.6-4.5-1.7-53.4-1.7C30.3 19 29 19 28 21zm15.6 3c7.8 0 7.8-.1 2.5 13.5l-3.9 10-8.7.3c-4.9.2-9.2-.1-9.6-.5-1.2-1.2 6.4-21.3 8.7-23 1-.7 2.5-1.1 3.2-.8.8.3 4.3.5 7.8.5zm88.1 1.3c1.7 2.2 8.3 20.9 7.7 21.8-.3.5-14.1.9-31 .9H78l-1.5-3.3c-.7-1.7-2.7-6.8-4.3-11.2-2.4-6.3-2.7-8.2-1.8-9 2-1.5 60.1-.8 61.3.8z"/><path d="M93.4 78.3c-.3.8-.3 5.6-.2 10.8.3 8 .6 9.4 2.1 9.7 1.5.3 1.7-.7 1.7-10.7 0-9.3-.2-11.1-1.5-11.1-.9 0-1.8.6-2.1 1.3zM101.7 77.7c-.4.3-.7 5.1-.7 10.5 0 8 .3 10 1.5 10.5.9.3 1.8.3 2.1 0 .4-.4.8-15.5.5-20.5-.1-1.3-2.3-1.7-3.4-.5zM112.2 87.7c.2 8.8.6 10.8 1.8 10.8 1.2 0 1.5-1.8 1.5-10.5 0-9.3-.2-10.5-1.8-10.8-1.6-.3-1.7.5-1.5 10.5zM120.4 78.3c-.3.8-.3 5.6-.2 10.8.2 7.7.6 9.4 1.9 9.7 2.3.4 2.5-.8 2.1-12.1-.3-7.7-.6-9.7-1.8-9.7-.8 0-1.7.6-2 1.3z"/></svg>