<?xml version="1.0" standalone="no"?><svg version="1.0" xmlns="http://www.w3.org/2000/svg" width="224" height="216" viewBox="0 0 168 162"><path d="M65 19.9c-3.1 1.4-8 3.7-11 5-11.5 5.1-16 7.3-17 8.6-2 2.4-.1 5.3 6.1 9 3.2 2 5.9 4.3 5.9 5 0 .7-2.5 2.8-5.5 4.5-9.6 5.5-9.5 8.6.4 13.4l6.6 3.2.3 7.2c.3 6.9.4 7.2 2.7 7.2 2.3 0 2.5-.4 2.5-5 0-6.4 1.2-6.9 7.9-3.6 6.3 3.2 7.9 3.2 12.5.1 6.2-4.2 6.5-3.9 6.8 8.7.3 10.5.4 11.3 2.3 11.3s2-.8 2.3-11.3c.3-12.6.6-12.9 6.8-8.7 2 1.4 4.6 2.5 5.6 2.5 1.1 0 4.2-1.1 7-2.5 7.1-3.6 7.6-3.4 8 2.7.3 4.6.6 5.3 2.5 5.6 2.1.3 2.2-.1 2.5-7l.3-7.3 5-2.3c6.9-3.1 7.7-3.6 8.9-5.5 1.6-2.5-.1-4.6-6.7-8.6-3.1-1.9-5.7-3.9-5.7-4.6 0-.7 2.7-2.9 5.9-4.9 6.7-4.1 8.3-6.9 5.5-9.6-1.1-1-6.2-3.7-11.4-6-14.4-6.4-18.3-8.2-20.1-9.1-1.1-.5-3.7.4-8.4 3.1-3.7 2.2-7.4 4-8.1 4-.8 0-3.1-1.1-5.2-2.3-8.9-5.6-9.1-5.7-15.2-2.8zm11.4 5.7c2.8 1.6 4.6 3.2 4.4 4.1-.3 1.4-25 13.4-27.2 13.2-1.8-.1-9.9-5.4-10.4-6.7-.2-.7 2.4-2.4 6.5-4.2 3.7-1.7 9.5-4.4 12.8-6 7.5-3.6 8.2-3.6 13.9-.4zm33.8 1.3c4.5 2.1 10.4 4.8 13.1 5.9 6.5 2.9 6.3 3.6-2 8.2-4.1 2.3-4.2 2.3-8 .5-2.1-1-8.1-3.8-13.3-6.1-6.5-2.8-9.5-4.7-9.5-5.8 0-1.8 6.8-6.3 9.7-6.5.9-.1 5.4 1.6 10 3.8zM95 38.3c3 1.4 8 3.6 11.1 5 6.2 2.7 7.5 4 5.6 5.4-2.4 2-24.2 11.3-26.2 11.3-1.2 0-7.2-2.4-13.5-5.3-13.6-6.2-14.2-6.6-13.5-7.7.6-1 1.5-1.5 16.9-8.4 10.7-4.8 9.8-4.8 19.6-.3zM67.6 57.9c7.1 3.3 13 6.6 13.2 7.4.2.9-1.7 2.5-5.1 4.2l-5.4 2.8-10.9-5c-6-2.8-11.9-5.3-13.1-5.7-4-1.3-3.5-3.5 1.5-6.6 2.6-1.6 5.2-3 5.8-3 .7 0 7 2.7 14 5.9zm55.7-2.9c2.6 1.6 4.7 3.4 4.7 4 0 .6-1.7 1.8-3.7 2.7-2.1.8-8 3.5-13.2 5.9-5.1 2.4-9.9 4.4-10.5 4.4-2.1 0-10.8-6-10.4-7.1.4-1.3 24.4-12.7 26.9-12.8.8-.1 3.6 1.2 6.2 2.9z"/><path d="M28 70.9c-4.4 2.2-5.6 3.3-5.8 5.4-.3 2.4.5 3.2 6.3 6.8 3.6 2.3 6.4 4.7 6.2 5.2-.2.6-3 2.7-6.3 4.7-9.1 5.6-8.5 9.6 1.9 13.5 2.6 1 5.1 2.3 5.4 2.9.4.6.6 6.1.4 12.3-.3 13-.4 12.8 10.3 17.4 3.6 1.5 9.4 4.1 12.8 5.7 3.5 1.5 10.9 4.8 16.5 7.2 9.9 4.2 10.3 4.2 13.5 2.7 1.8-.8 11.9-5.2 22.3-9.7 10.5-4.5 20-8.8 21.2-9.6 2.1-1.3 2.3-2.2 2.5-14l.3-12.6 5.1-2.1c6.6-2.8 8.4-4.4 8.4-7.3 0-1.8-1.2-3.1-4.6-5.2-6.5-3.8-8.5-5.5-7.6-6.7.4-.6 3.3-2.7 6.5-4.8 5-3.3 5.8-4.2 5.5-6.5-.2-2.2-1.4-3.2-5.8-5.4-4.6-2.2-5.7-2.4-6.9-1.3-1.8 1.7-.2 4 3.4 4.9 4 1 3 3.8-2.3 6.7-3.2 1.8-5.7 2.5-7.5 2.2-2.5-.5-2.7-.3-2.7 2.6 0 3-.5 3.4-8.2 7-4.6 2.1-11.2 5.1-14.8 6.6-3.6 1.5-8.9 3.8-11.8 5.1-2.9 1.3-5.8 2.4-6.5 2.4-.7 0-10.3-3.9-21.2-8.8-15.9-6.9-20-9.1-20.1-10.7-.1-1.1-.2-2.6-.3-3.4-.1-.9-.9-1.2-2.9-.8-2 .4-4.1-.2-7.5-2.4-5.2-3.2-6-5.5-2.2-6.5 3.6-.9 5.2-3.1 3.4-4.9-1.2-1.1-2.2-.9-6.9 1.4zm31.6 30.3c19 8.1 21.4 9.4 21.4 10.8 0 .5-2.3 2.3-5.2 4-5.1 3.2-5.2 3.2-8.7 1.5-2-1-8.5-3.9-14.6-6.5-6-2.6-13-5.6-15.5-6.7-2.5-1.1-5.3-2.3-6.2-2.6-1-.4-1.8-1.3-1.8-2.1 0-1.5 7.6-6.5 10.1-6.6.9 0 10.1 3.7 20.5 8.2zm78-5.6c2.7 1.6 4.4 3.3 4.2 4.2-.2.9-4.8 3.4-10.8 5.9-5.8 2.5-14.9 6.5-20.4 8.9l-9.8 4.4-5.4-3.1c-3-1.7-5.4-3.5-5.4-4 0-1.1 3.1-2.6 25.5-12.5 7.7-3.4 14.8-6.2 15.8-6.3 1-.1 3.9 1.1 6.3 2.5zM56.7 118c7.4 3.3 13.9 6 14.4 6s2.7-1.1 4.9-2.5c7-4.4 7-4.4 7 12.5 0 12.3-.3 15-1.4 15-.8 0-4.7-1.5-8.8-3.4-4-1.8-11.8-5.3-17.3-7.6-15.3-6.4-14.5-5.5-14.5-15.9 0-7.8.4-10.1 1.7-10.1.3 0 6.5 2.7 14 6zm73.3 4c0 5.8-.4 9.1-1.2 9.8-2.6 2.1-38.2 17.2-39.5 16.8-1-.4-1.3-4-1.3-15.1 0-16.5-.1-16.4 7.6-11.9l4.5 2.6 11.2-4.8c6.2-2.7 12.3-5.4 13.6-6 4.3-2.3 5.1-1 5.1 8.6z"/></svg>