<?xml version="1.0" standalone="no"?><svg version="1.0" xmlns="http://www.w3.org/2000/svg" width="73.333" height="73.333" viewBox="0 0 55 55"><path d="M33.9 4.5c-3.6 1.9-6.3 7.8-5.5 12 .6 2.9 3.4 7.7 9.9 16.6 1.1 1.5 2 2 2.5 1.3.4-.5 2.8-4 5.5-7.6 5.3-7.5 6.4-11.1 4.7-16.2C48.8 3.9 40.5.9 33.9 4.5zm9.5.9c8 3.3 8.6 9.4 1.9 19.5-5.3 8-5.2 8.1-11.3-1.1-5.7-8.6-5-14.5 2-18 4.2-2.1 3.3-2.1 7.4-.4z"/><path d="M36.6 10.6c-2.4 2.4-2 6.1.9 8 2.3 1.5 2.7 1.5 5 0C46.7 15.8 44.9 9 40 9c-1 0-2.6.7-3.4 1.6zm6.2 3.5c.3 2.8-1.6 4.3-4.3 3.3-1.5-.6-2.1-4.5-.8-5.8 1.6-1.6 4.8-.1 5.1 2.5zM5 28.8v14.7l7.3 2.6 7.2 2.5 7.9-1.9 7.9-2 6.5 2.1c3.6 1.2 6.9 1.9 7.4 1.6 1.1-.7.8-20.3-.3-21-.5-.3-.9 3.8-.9 9.2v9.6l-2.7-.5C38.2 44.3 37 43.3 37 39c0-2.2-.4-4-1-4-.5 0-1 1.7-1 3.9 0 3.8 0 3.8-5.8 5.5-9.8 2.7-9.2 3.4-9.2-11V20.8l3-1.1c1.7-.6 3-1.5 3-1.9 0-1-1.8-.9-4.5.1-1.1.5-2.9.5-4.1.1-1.1-.5-4.4-1.5-7.2-2.4L5 14.1v14.7zm10.4-9.4l3.6 1.5v12.5c0 7-.4 12.6-.9 12.6s-3.4-1-6.5-2.1L6 41.7v-25l2.9.6c1.7.4 4.6 1.3 6.5 2.1z"/></svg>